<svg xmlns="http://www.w3.org/2000/svg" viewBox="0 0 64 64"><defs><style>.cls-1{fill:#ffb74d;}.cls-2{fill:#ef9014;}</style></defs><title>Coin Litecoin</title><g id="Layer_2" data-name="Layer 2"><g id="Layer_1-2" data-name="Layer 1"><path class="cls-1" d="M64,32a31.86,31.86,0,0,1-1.08,8.25,30.8,30.8,0,0,1-2.46,6.35A32,32,0,1,1,11.74,7.24a32.34,32.34,0,0,1,12-6.16A31.86,31.86,0,0,1,32,0,31.52,31.52,0,0,1,43.79,2.26a23.2,23.2,0,0,1,2.48,1.11q.53.25,1.06.56A31.22,31.22,0,0,1,52.92,7.8a30.22,30.22,0,0,1,3.28,3.28,31.23,31.23,0,0,1,3.87,5.59,29,29,0,0,1,2.59,6.23A31.26,31.26,0,0,1,64,32Z"/><circle class="cls-2" cx="32" cy="32" r="25.26"/><g id="_1vconC.tif" data-name="1vconC.tif"><path class="cls-1" d="M23.06,37l-2.54,1c-.14.06-.3.18-.44.06s0-.31,0-.46c.22-.89.45-1.79.67-2.68a.81.81,0,0,1,.57-.63c.71-.26,1.41-.58,2.13-.82a1.08,1.08,0,0,0,.76-.88c1.13-4.59,2.29-9.18,3.42-13.77.14-.58.36-.8.94-.79,2.27,0,4.54,0,6.8,0,.76,0,.78,0,.59.79q-1.24,5-2.48,10c0,.19-.21.43,0,.58s.36,0,.54-.11l2.34-.93c.16-.06.34-.21.49-.09s0,.35,0,.51c-.2.86-.43,1.71-.63,2.57a.91.91,0,0,1-.63.72c-.91.34-1.82.72-2.73,1.06a.87.87,0,0,0-.58.69c-.48,2-1,4-1.48,6-.17.67-.12.74.56.74H43.51c.46,0,.57.16.44.64q-.55,2.08-1,4.18a.71.71,0,0,1-.8.66Q31.86,46,21.6,46c-.7,0-.73,0-.54-.79Q22,41.35,23,37.5C23,37.37,23,37.23,23.06,37Z"/></g></g></g></svg>